Simulation
nRows=34
nColumns=15
endheader
time  TH_x TH_y TH_z SC_y  SC_z  SC_x  AC_y  AC_z  AC_x  GH_y  GH_z  GH_yy  EL_x  PS_y
0.0  0.000000  0.000000  0.000000  -25.439380473722593  3.713414719477569  4.215638586260096  54.20684711751494  6.140821581284161  -1.793578257729156  5.320518468658455  10.185300348892973  35.4267288670976  27.16739449356096  120.000000
0.04065934065934069  0.000000  0.000000  0.000000  -23.997198294693604  4.213371209014463  4.310904331447437  53.906895390954546  6.164186251331628  -1.408910033897545  0.2736308684746551  10.279589878411153  41.18542155520716  26.301441583381155  120.000000
0.08131868131868138  0.000000  0.000000  0.000000  -22.757051375918497  4.522470256452797  4.30412715701629  53.69241321209367  6.056337574386323  -1.0518326069758621  -3.8909389722145167  10.332707766254236  45.69405443465768  25.89410681244724  120.000000
0.12197802197802207  0.000000  0.000000  0.000000  -21.827783056723234  4.706740523238717  4.211703580059039  53.57447255635207  5.899645442422955  -0.733038435193405  -7.058223979689156  10.357585059115024  48.47590812804213  26.245152862901264  120.000000
0.16263736263736275  0.000000  0.000000  0.000000  -21.241771722318074  4.816824036625317  4.043669747299147  53.54050043162229  5.761355349515374  -0.4413623818806206  -9.202376686981017  10.390365277533379  49.24470226025799  27.41156071696817  120.000000
0.20329670329670343  0.000000  0.000000  0.000000  -20.9684974434107  4.882965450041844  3.809085094953253  53.57037104376839  5.702795297190813  -0.15339234333467097  -10.209272704887512  10.498419070834839  47.829177181402585  29.236367268962702  120.000000
0.24395604395604414  0.000000  0.000000  0.000000  -20.94843652689233  4.915907605143416  3.524252345844967  53.649098178419436  5.776761087112382  0.1398200305477789  -9.800206886779296  10.76913714510181  44.0733298548097  31.440486135163315  120.000000
0.2846153846153848  0.000000  0.000000  0.000000  -21.12208209179835  4.916404538024492  3.2176421239058417  53.76193244939249  6.020888651486716  0.426234367746076  -7.652303482700467  11.305843588929742  37.903314627012044  33.715436504698495  120.000000
0.3252747252747255  0.000000  0.000000  0.000000  -21.432997195691144  4.878830716010832  2.920003107138965  53.891680752849915  6.4550315726483065  0.6836348426544244  -3.6768261594261085  12.231134120366201  29.545618838174942  35.75749927759299  120.000000
0.3659340659340662  0.000000  0.000000  0.000000  -21.82145640603798  4.791027272888234  2.6575503851210343  54.02857723378462  7.074492627829672  0.8850703838529587  1.7853902988831032  13.679872641118463  19.673924094195534  37.276921756809806  120.000000
0.40659340659340687  0.000000  0.000000  0.000000  -22.214535354587408  4.636389275305078  2.4483040824101097  54.16661767328984  7.840776846674128  1.0094546999112042  8.017121058802077  15.764724590651946  9.324859439859999  38.03619706521149  120.000000
0.44725274725274755  0.000000  0.000000  0.000000  -22.526628481705878  4.40521293053022  2.2941757666466303  54.307048442276056  8.685418829594155  1.0537078970099356  14.207189625260348  18.520695994205944  -0.4093739798876014  37.88597849968914  120.000000
0.4879120879120883  0.000000  0.000000  0.000000  -22.67049091946063  4.107817580932034  2.1796393519399855  54.44638235140116  9.525232047888803  1.0368201693368622  19.738449938188094  21.857512403745748  -8.681775851828451  36.75921219721223  120.000000
0.5285714285714289  0.000000  0.000000  0.000000  -22.575750694120497  3.777152850253359  2.077594907116163  54.56430859690668  10.284819599231053  0.9879133067847283  24.30015545820355  25.551549754257948  -15.021396436868182  34.671441566316275  120.000000
0.5692307692307697  0.000000  0.000000  0.000000  -22.21649170676427  3.4626487586371635  1.9599271377848881  54.6285221499569  10.91068325819854  0.9428082648057354  27.827297044538277  29.278963810494734  -19.296614247230103  31.75033521915671  120.000000
0.6098901098901103  0.000000  0.000000  0.000000  -21.628435628492344  3.214983618394791  1.803083082451634  54.61119924702981  11.374010071161647  0.9333538676721286  30.401946111857857  32.682703948550056  -21.660549870639695  28.281223170315442  120.000000
0.650549450549451  0.000000  0.000000  0.000000  -20.902747713647013  3.065125353721259  1.5891453664070343  54.50087151001999  11.667991430103337  0.9774864665017338  32.15134392383509  35.4468455225243  -22.49082677858633  24.738800356014824  120.000000
0.6912087912087918  0.000000  0.000000  0.000000  -20.172451700455863  3.021423738415795  1.3057230698021107  54.307545426688876  11.804719455375936  1.0830922625921346  33.17786629286412  37.348629590385954  -22.314357826698327  21.751929304062855  120.000000
0.7318681318681324  0.000000  0.000000  0.000000  -19.59471751564474  3.085567081199161  0.9468365114834738  54.0518631653455  11.811952228234153  1.2506073981598298  33.54376786628631  38.28044385006902  -21.706962664074393  20.000784307079865  120.000000
0.7725274725274731  0.000000  0.000000  0.000000  -19.30703590320381  3.253973936495063  0.5126092712884089  53.74538914896959  11.733051591521878  1.4691272082459077  33.284706835123906  38.24425859512438  -21.17321480423202  20.048062517107326  120.000000
0.8131868131868137  0.000000  0.000000  0.000000  -19.37370224033909  3.50602978904219  0.006448298381062592  53.39028028549916  11.627160141137809  1.7182088963603437  32.427531739503706  37.32206527121469  -21.023039596088235  22.171086479748173  120.000000
0.8538461538461545  0.000000  0.000000  0.000000  -19.766440261994216  3.8039906441097977  -0.5684959054448355  52.99104196114731  11.557452211547862  1.9794961454875184  31.005041171811385  35.649172364340544  -21.28995705309994  26.314188581246622  120.000000
0.8945054945054951  0.000000  0.000000  0.000000  -20.382522682200722  4.103043493521107  -1.2079293808805895  52.562731172867316  11.576500732201628  2.2449307586277136  29.060583043011704  33.41151602303631  -21.75241903748737  32.14875603103832  120.000000
0.9351648351648358  0.000000  0.000000  0.000000  -21.078998076534166  4.364496033245147  -1.8982942842316661  52.12690115356239  11.718161924603194  2.5159129051511706  26.625143876970874  30.84974587781524  -22.03825309315002  39.18753649868033  120.000000
0.9758241758241766  0.000000  0.000000  0.000000  -21.72026687699924  4.569051002773838  -2.609991984720669  51.70412465187585  11.99877788621029  2.7971213692876384  23.711781625869637  28.246498691068798  -21.77586616508266  46.909658042033314  120.000000
1.0164835164835173  0.000000  0.000000  0.000000  -22.219089548523872  4.722114683367136  -3.3017620515428154  51.30773397475521  12.420436166503736  3.0961461938072565  20.37699053799906  25.889163635383248  -20.771879294766297  54.855174097436844  120.000000
1.0571428571428578  0.000000  0.000000  0.000000  -22.55016472265604  4.848098443876776  -3.9287494806673235  50.94548744092935  12.975341584700965  3.4229602894968445  16.83949169061196  24.016092572248628  -19.175350224274073  62.667481925493725  120.000000
1.0978021978021986  0.000000  0.000000  0.000000  -22.737953196077733  4.979905517952084  -4.443941123764003  50.62511492878902  13.64728702178144  3.7889349833154222  13.560238293735532  22.77009957193815  -17.526442121703237  70.08150132338898  120.000000
1.1384615384615393  0.000000  0.000000  0.000000  -22.82975304021742  5.150407551813032  -4.8008159591996895  50.357409012173186  14.416094269372877  4.206284701743767  11.155295163614221  22.184885170565995  -16.602873683131957  76.88818648348987  120.000000
1.17912087912088  0.000000  0.000000  0.000000  -22.86904998153627  5.3877329839661  -4.960033868272476  50.151252962540156  15.259175516299482  4.689405974079507  10.141599324083563  22.218677655860283  -17.092453679351884  82.90639914582309  120.000000
1.2197802197802206  0.000000  0.000000  0.000000  -22.878445681451264  5.712786157199561  -4.892998022647891  50.00603999416728  16.145452902239615  5.249900163106775  10.703915362710253  22.812946835142725  -19.30509849013128  87.97169941590309  120.000000
1.2604395604395613  0.000000  0.000000  0.000000  -22.85814289916776  6.13744692415129  -4.586838715267095  49.90732953048857  17.03114000543615  5.89424334264668  12.63804904924157  23.932534050622046  -23.08678253914301  91.93512841155287  120.000000
1.301098901098902  0.000000  0.000000  0.000000  -22.79629682905027  6.663021102691891  -4.047483083722106  49.830145622608214  17.8642618856589  6.622474515541272  15.470796007658363  25.56278592118133  -27.938215167364717  94.66622205755671  120.000000
1.3417582417582428  0.000000  0.000000  0.000000  -22.680384610914487  7.279755342972933  -3.29534819794156  49.748304421954295  18.593358996369425  7.427054291790978  18.64842349230054  27.680826305109235  -33.22181271107845  96.0614723136868  120.000000
